<svg xmlns="http://www.w3.org/2000/svg" width="36" height="36" viewBox="0 0 36 36">
    <path fill="#161514" fill-rule="evenodd" d="M0 18c0 7.953 5.157 14.7 12.31 17.08.9.165 1.229-.39 1.229-.868 0-.426-.016-1.56-.025-3.06-5.007 1.087-6.063-2.414-6.063-2.414-.819-2.08-1.999-2.633-1.999-2.633-1.634-1.116.124-1.094.124-1.094 1.807.127 2.757 1.855 2.757 1.855 1.605 2.75 4.213 1.956 5.239 1.495.163-1.162.628-1.956 1.142-2.406-3.997-.454-8.199-1.998-8.199-8.896 0-1.965.702-3.572 1.853-4.83-.185-.455-.803-2.286.177-4.764 0 0 1.51-.484 4.95 1.846A17.24 17.24 0 0 1 18 8.704a17.26 17.26 0 0 1 4.506.607c3.436-2.33 4.945-1.846 4.945-1.846.982 2.478.364 4.309.18 4.764 1.153 1.258 1.85 2.865 1.85 4.83 0 6.915-4.21 8.437-8.218 8.882.645.556 1.22 1.654 1.22 3.334 0 2.406-.021 4.347-.021 4.937 0 .482.324 1.042 1.237.866C30.847 32.693 36 25.951 36 18.001 36 8.059 27.94 0 17.998 0 8.06 0 0 8.059 0 18z"/>
</svg>
