<svg xmlns="http://www.w3.org/2000/svg" width="70" height="23" viewBox="0 0 70 23">
    <g fill="none" fill-rule="evenodd">
        <path fill="#EF4131" d="M69.967 10.644l-7.634 3.164s.493 1.75 2.788 1.762c1.797.01 2.812-1.598 2.812-1.598l1.937 1.316s-1.563 2.535-4.764 2.535c-3.934 0-5.666-3.45-5.666-5.69 0-2.159 1.375-5.814 5.422-5.814 4.046 0 5.105 4.325 5.105 4.325zm-2.905-.897s-.96-1.465-2.433-1.195c-3.116.572-2.724 3.307-2.724 3.307l5.157-2.112z"/>
        <path fill="#31AA52" d="M55.805.601h2.554v16.912h-2.554z"/>
        <path fill="#3182F6" d="M51.77 6.683l2.36.02v10.67c0 2.727-1.617 5.605-5.427 5.605-3.81 0-5.04-3.386-5.04-3.386l2.167-.914s.661 2.086 2.985 2.086c2.647 0 2.956-2.414 2.956-3.241v-1.158s-.916 1.437-3.19 1.437c-2.466 0-5.397-2.119-5.397-5.731 0-3.613 2.76-5.679 5.425-5.754 2.135-.06 3.161 1.421 3.161 1.421V6.683zm-2.988 8.951c1.722 0 3.117-1.582 3.117-3.533 0-1.95-1.395-3.532-3.117-3.532-1.721 0-3.117 1.581-3.117 3.532s1.396 3.533 3.117 3.533z"/>
        <path fill="#FDBE07" d="M36.39 17.814a5.748 5.748 0 0 1-5.746-5.75 5.748 5.748 0 0 1 5.745-5.75 5.748 5.748 0 0 1 5.746 5.75 5.748 5.748 0 0 1-5.746 5.75zm-.038-2.255c1.784 0 3.23-1.565 3.23-3.495 0-1.93-1.446-3.495-3.23-3.495s-3.23 1.564-3.23 3.495c0 1.93 1.446 3.495 3.23 3.495z"/>
        <path fill="#EF4131" d="M23.922 17.814a5.748 5.748 0 0 1-5.746-5.75 5.748 5.748 0 0 1 5.746-5.75 5.748 5.748 0 0 1 5.745 5.75 5.748 5.748 0 0 1-5.745 5.75zm-.038-2.255c1.784 0 3.23-1.565 3.23-3.495 0-1.93-1.446-3.495-3.23-3.495s-3.23 1.564-3.23 3.495c0 1.93 1.446 3.495 3.23 3.495z"/>
        <g fill="#3182F6">
            <path d="M9.013 8.118h7.586l-.075 2.405H9.013z"/>
            <path d="M15.106 2.458C13.629.898 11.47 0 8.9 0 3.985 0 0 3.988 0 8.907c0 4.919 3.985 8.9 8.9 8.907 4.998.045 9.166-3.482 8.333-9.607v-.09h-2.217c.018.256.025.52.019.79.005 4.374-2.513 6.426-6.06 6.426a6.424 6.424 0 0 1-6.421-6.426A6.424 6.424 0 0 1 8.975 2.48c1.775 0 3.312.608 4.395 1.716l1.736-1.738z"/>
        </g>
    </g>
</svg>
